<?xml version="1.0" encoding="UTF-8" standalone="no"?>
<!DOCTYPE svg PUBLIC "-//W3C//DTD SVG 1.1//EN"
 "http://www.w3.org/Graphics/SVG/1.1/DTD/svg11.dtd">
<!-- Generated by graphviz version 2.40.1 (0)
 -->
<!-- Title: concept_model Pages: 1 -->
<svg width="644pt" height="542pt"
 viewBox="0.00 0.00 643.50 542.00" xmlns="http://www.w3.org/2000/svg" xmlns:xlink="http://www.w3.org/1999/xlink">
<g id="graph0" class="graph" transform="scale(1 1) rotate(0) translate(4 538)">
<title>concept_model</title>
<polygon fill="#ffffff" stroke="transparent" points="-4,4 -4,-538 639.5,-538 639.5,4 -4,4"/>
<g id="clust1" class="cluster">
<title>cluster_stages</title>
<path fill="none" stroke="#000000" d="M112,-131C112,-131 528,-131 528,-131 534,-131 540,-137 540,-143 540,-143 540,-190 540,-190 540,-196 534,-202 528,-202 528,-202 112,-202 112,-202 106,-202 100,-196 100,-190 100,-190 100,-143 100,-143 100,-137 106,-131 112,-131"/>
<text text-anchor="middle" x="320" y="-190" font-family="Times,serif" font-size="10.00" fill="#000000">Abstract priority slots</text>
</g>
<g id="clust3" class="cluster">
<title>cluster_sections</title>
<path fill="none" stroke="#000000" d="M20,-8C20,-8 507,-8 507,-8 513,-8 519,-14 519,-20 519,-20 519,-67 519,-67 519,-73 513,-79 507,-79 507,-79 20,-79 20,-79 14,-79 8,-73 8,-67 8,-67 8,-20 8,-20 8,-14 14,-8 20,-8"/>
<text text-anchor="middle" x="263.5" y="-67" font-family="Times,serif" font-size="10.00" fill="#000000">GRIB header (abstract sections)</text>
</g>
<!-- concept -->
<g id="node1" class="node">
<title>concept</title>
<path fill="none" stroke="#000000" d="M474.5,-534C474.5,-534 361.5,-534 361.5,-534 355.5,-534 349.5,-528 349.5,-522 349.5,-522 349.5,-462 349.5,-462 349.5,-456 355.5,-450 361.5,-450 361.5,-450 474.5,-450 474.5,-450 480.5,-450 486.5,-456 486.5,-462 486.5,-462 486.5,-522 486.5,-522 486.5,-528 480.5,-534 474.5,-534"/>
<text text-anchor="middle" x="418" y="-518.8" font-family="Times,serif" font-size="14.00" fill="#000000">Concept</text>
<text text-anchor="middle" x="418" y="-487.8" font-family="Times,serif" font-size="14.00" fill="#000000">Canonical, orthogonal</text>
<text text-anchor="middle" x="418" y="-472.8" font-family="Times,serif" font-size="14.00" fill="#000000">representation of</text>
<text text-anchor="middle" x="418" y="-457.8" font-family="Times,serif" font-size="14.00" fill="#000000">one semantic aspect</text>
</g>
<!-- expansion -->
<g id="node2" class="node">
<title>expansion</title>
<path fill="none" stroke="#000000" d="M387.5,-363C387.5,-363 204.5,-363 204.5,-363 198.5,-363 192.5,-357 192.5,-351 192.5,-351 192.5,-260 192.5,-260 192.5,-254 198.5,-248 204.5,-248 204.5,-248 387.5,-248 387.5,-248 393.5,-248 399.5,-254 399.5,-260 399.5,-260 399.5,-351 399.5,-351 399.5,-357 393.5,-363 387.5,-363"/>
<text text-anchor="middle" x="296" y="-347.8" font-family="Times,serif" font-size="14.00" fill="#000000">Concept materialization</text>
<text text-anchor="middle" x="296" y="-316.8" font-family="Times,serif" font-size="14.00" fill="#000000">Sparse expansion across:</text>
<text text-anchor="middle" x="296" y="-301.8" font-family="Times,serif" font-size="14.00" fill="#000000">&#45; multiple sections</text>
<text text-anchor="middle" x="296" y="-286.8" font-family="Times,serif" font-size="14.00" fill="#000000">&#45; multiple priority slots</text>
<text text-anchor="middle" x="296" y="-255.8" font-family="Times,serif" font-size="14.00" fill="#000000">(not compact in space nor priority)</text>
</g>
<!-- concept&#45;&gt;expansion -->
<g id="edge1" class="edge">
<title>concept&#45;&gt;expansion</title>
<path fill="none" stroke="#000000" d="M390.3163,-449.6803C375.2836,-426.6999 356.3568,-397.7667 339.4104,-371.861"/>
<polygon fill="#000000" stroke="#000000" points="342.1512,-369.6572 333.7478,-363.2047 336.2932,-373.4892 342.1512,-369.6572"/>
<text text-anchor="middle" x="410.5" y="-402.8" font-family="Times,serif" font-size="14.00" fill="#000000">logical definition</text>
</g>
<!-- note -->
<g id="node11" class="node">
<title>note</title>
<polygon fill="none" stroke="#000000" points="629.5,-339.5 442.5,-339.5 442.5,-271.5 635.5,-271.5 635.5,-333.5 629.5,-339.5"/>
<polyline fill="none" stroke="#000000" points="629.5,-339.5 629.5,-333.5 "/>
<polyline fill="none" stroke="#000000" points="635.5,-333.5 629.5,-333.5 "/>
<text text-anchor="middle" x="539" y="-324.3" font-family="Times,serif" font-size="14.00" fill="#000000">A Concept is logically compact</text>
<text text-anchor="middle" x="539" y="-309.3" font-family="Times,serif" font-size="14.00" fill="#000000">but expands into a sparse,</text>
<text text-anchor="middle" x="539" y="-294.3" font-family="Times,serif" font-size="14.00" fill="#000000">distributed set of key/value</text>
<text text-anchor="middle" x="539" y="-279.3" font-family="Times,serif" font-size="14.00" fill="#000000">assignments in the GRIB header</text>
</g>
<!-- concept&#45;&gt;note -->
<g id="edge12" class="edge">
<title>concept&#45;&gt;note</title>
<path fill="none" stroke="#000000" stroke-dasharray="1,5" d="M445.4568,-449.6803C467.0721,-416.3642 496.8048,-370.5364 516.9013,-339.5612"/>
</g>
<!-- allocate -->
<g id="node3" class="node">
<title>allocate</title>
<ellipse fill="none" stroke="#000000" cx="374" cy="-157" rx="38.1938" ry="18"/>
<text text-anchor="middle" x="374" y="-153.3" font-family="Times,serif" font-size="14.00" fill="#000000">allocate</text>
</g>
<!-- expansion&#45;&gt;allocate -->
<g id="edge2" class="edge">
<title>expansion&#45;&gt;allocate</title>
<path fill="none" stroke="#000000" stroke-dasharray="5,2" d="M326.3802,-247.6608C337.9296,-225.6725 350.5406,-201.663 359.8818,-183.8788"/>
<polygon fill="#000000" stroke="#000000" points="363.1559,-185.1721 364.7075,-174.6915 356.9588,-181.917 363.1559,-185.1721"/>
</g>
<!-- preset -->
<g id="node4" class="node">
<title>preset</title>
<ellipse fill="none" stroke="#000000" cx="140" cy="-157" rx="31.6951" ry="18"/>
<text text-anchor="middle" x="140" y="-153.3" font-family="Times,serif" font-size="14.00" fill="#000000">preset</text>
</g>
<!-- expansion&#45;&gt;preset -->
<g id="edge3" class="edge">
<title>expansion&#45;&gt;preset</title>
<path fill="none" stroke="#000000" stroke-dasharray="5,2" d="M235.2396,-247.6608C210.2761,-223.8974 182.8326,-197.7733 163.8441,-179.6977"/>
<polygon fill="#000000" stroke="#000000" points="166.1619,-177.0718 156.5056,-172.7121 161.3355,-182.142 166.1619,-177.0718"/>
</g>
<!-- override -->
<g id="node5" class="node">
<title>override</title>
<ellipse fill="none" stroke="#000000" cx="254" cy="-157" rx="38.9931" ry="18"/>
<text text-anchor="middle" x="254" y="-153.3" font-family="Times,serif" font-size="14.00" fill="#000000">override</text>
</g>
<!-- expansion&#45;&gt;override -->
<g id="edge4" class="edge">
<title>expansion&#45;&gt;override</title>
<path fill="none" stroke="#000000" stroke-dasharray="5,2" d="M279.6414,-247.6608C273.5186,-226.0123 266.8417,-202.4045 261.8365,-184.7076"/>
<polygon fill="#000000" stroke="#000000" points="265.189,-183.7004 259.0995,-175.0305 258.4532,-185.6056 265.189,-183.7004"/>
</g>
<!-- runtime -->
<g id="node6" class="node">
<title>runtime</title>
<ellipse fill="none" stroke="#000000" cx="494" cy="-157" rx="38.1938" ry="18"/>
<text text-anchor="middle" x="494" y="-153.3" font-family="Times,serif" font-size="14.00" fill="#000000">runtime</text>
</g>
<!-- expansion&#45;&gt;runtime -->
<g id="edge5" class="edge">
<title>expansion&#45;&gt;runtime</title>
<path fill="none" stroke="#000000" stroke-dasharray="5,2" d="M372.8354,-247.8735C405.3132,-223.5151 441.1458,-196.6406 465.3585,-178.4811"/>
<polygon fill="#000000" stroke="#000000" points="467.5136,-181.2398 473.4137,-172.4398 463.3136,-175.6398 467.5136,-181.2398"/>
</g>
<!-- secA -->
<g id="node7" class="node">
<title>secA</title>
<ellipse fill="none" stroke="#000000" cx="331" cy="-34" rx="46.2923" ry="18"/>
<text text-anchor="middle" x="331" y="-30.3" font-family="Times,serif" font-size="14.00" fill="#000000">Section A</text>
</g>
<!-- allocate&#45;&gt;secA -->
<g id="edge6" class="edge">
<title>allocate&#45;&gt;secA</title>
<path fill="none" stroke="#000000" d="M367.7474,-139.1147C360.614,-118.7098 348.8668,-85.1074 340.5775,-61.396"/>
<polygon fill="#000000" stroke="#000000" points="343.8642,-60.1916 337.2601,-51.9068 337.2563,-62.5017 343.8642,-60.1916"/>
<text text-anchor="middle" x="381" y="-91.8" font-family="Times,serif" font-size="14.00" fill="#000000">key/value</text>
</g>
<!-- secC -->
<g id="node9" class="node">
<title>secC</title>
<ellipse fill="none" stroke="#000000" cx="466" cy="-34" rx="45.4919" ry="18"/>
<text text-anchor="middle" x="466" y="-30.3" font-family="Times,serif" font-size="14.00" fill="#000000">Section C</text>
</g>
<!-- allocate&#45;&gt;secC -->
<g id="edge7" class="edge">
<title>allocate&#45;&gt;secC</title>
<path fill="none" stroke="#000000" d="M387.7986,-140.1628C396.3545,-129.6031 407.4897,-115.6412 417,-103 427.5499,-88.977 438.9215,-73.0197 448.0517,-59.9853"/>
<polygon fill="#000000" stroke="#000000" points="451.1279,-61.6928 453.9769,-51.4881 445.3861,-57.6889 451.1279,-61.6928"/>
<text text-anchor="middle" x="454" y="-91.8" font-family="Times,serif" font-size="14.00" fill="#000000">key/value</text>
</g>
<!-- secB -->
<g id="node8" class="node">
<title>secB</title>
<ellipse fill="none" stroke="#000000" cx="61" cy="-34" rx="45.4919" ry="18"/>
<text text-anchor="middle" x="61" y="-30.3" font-family="Times,serif" font-size="14.00" fill="#000000">Section B</text>
</g>
<!-- preset&#45;&gt;secB -->
<g id="edge8" class="edge">
<title>preset&#45;&gt;secB</title>
<path fill="none" stroke="#000000" d="M124.3084,-140.8621C114.8055,-130.5656 102.8522,-116.6348 94,-103 85.5299,-89.9537 77.9017,-74.3996 72.1185,-61.3644"/>
<polygon fill="#000000" stroke="#000000" points="75.2428,-59.7703 68.0723,-51.9706 68.8138,-62.5395 75.2428,-59.7703"/>
<text text-anchor="middle" x="120" y="-91.8" font-family="Times,serif" font-size="14.00" fill="#000000">key/value</text>
</g>
<!-- override&#45;&gt;secA -->
<g id="edge9" class="edge">
<title>override&#45;&gt;secA</title>
<path fill="none" stroke="#000000" d="M261.1699,-139.092C267.2205,-124.7909 276.5504,-104.4871 287,-88 293.3444,-77.99 301.2794,-67.7304 308.6574,-58.8793"/>
<polygon fill="#000000" stroke="#000000" points="311.3864,-61.0732 315.2149,-51.1943 306.0615,-56.5295 311.3864,-61.0732"/>
<text text-anchor="middle" x="313" y="-91.8" font-family="Times,serif" font-size="14.00" fill="#000000">key/value</text>
</g>
<!-- secD -->
<g id="node10" class="node">
<title>secD</title>
<ellipse fill="none" stroke="#000000" cx="196" cy="-34" rx="46.2923" ry="18"/>
<text text-anchor="middle" x="196" y="-30.3" font-family="Times,serif" font-size="14.00" fill="#000000">Section D</text>
</g>
<!-- override&#45;&gt;secD -->
<g id="edge10" class="edge">
<title>override&#45;&gt;secD</title>
<path fill="none" stroke="#000000" d="M225.2439,-144.5729C200.091,-133.0446 166.4419,-115.7902 159,-103 150.4284,-88.2681 159.1304,-71.414 170.2409,-58.0509"/>
<polygon fill="#000000" stroke="#000000" points="172.8403,-60.3946 176.9486,-50.6287 167.6469,-55.7011 172.8403,-60.3946"/>
<text text-anchor="middle" x="185" y="-91.8" font-family="Times,serif" font-size="14.00" fill="#000000">key/value</text>
</g>
<!-- runtime&#45;&gt;secC -->
<g id="edge11" class="edge">
<title>runtime&#45;&gt;secC</title>
<path fill="none" stroke="#000000" d="M506.5131,-139.7925C515.1383,-125.7143 523.9044,-105.366 517,-88 512.3103,-76.2043 503.6865,-65.4958 494.8475,-56.7824"/>
<polygon fill="#000000" stroke="#000000" points="497.1742,-54.1669 487.4537,-49.9523 492.4243,-59.3088 497.1742,-54.1669"/>
<text text-anchor="middle" x="545" y="-91.8" font-family="Times,serif" font-size="14.00" fill="#000000">key/value</text>
</g>
</g>
</svg>
